HIERARCHY
ROOT Hips
{
  OFFSET 5.84602e-005 68.8428 3.50346
  CHANNELS 6 Xposition Yposition Zposition Zrotation Xrotation Yrotation
  JOINT Spine
  {
    OFFSET 0 8.597 -4.6522
    CHANNELS 3 Zrotation Xrotation Yrotation
    JOINT Spine1
    {
      OFFSET 0 7.8454 0.4098
      CHANNELS 3 Zrotation Xrotation Yrotation
      JOINT Spine2
      {
        OFFSET 0 9.7078 -2.1609
        CHANNELS 3 Zrotation Xrotation Yrotation
        JOINT Neck
        {
          OFFSET 0 21.8761 -0.4549
          CHANNELS 3 Zrotation Xrotation Yrotation
          JOINT Head
          {
            OFFSET 0 12.3537 3.3602
            CHANNELS 3 Zrotation Xrotation Yrotation
            End Site
            {
              OFFSET 0.0001 18.9506 0.5657
            }
          }
        }
        JOINT LeftShoulder
        {
          OFFSET 2.2086 21.1115 7.2329
          CHANNELS 3 Zrotation Xrotation Yrotation
          JOINT LeftArm
          {
            OFFSET 13.1193 3.0282 -4.8998
            CHANNELS 3 Zrotation Xrotation Yrotation
            JOINT LeftForeArm
            {
              OFFSET 27.4081 -0.0973053 -0.2375
              CHANNELS 3 Zrotation Xrotation Yrotation
              JOINT LeftHand
              {
                OFFSET 22.8641 0.0662994 -0.1369
                CHANNELS 3 Zrotation Xrotation Yrotation
                JOINT LeftHandIndex1
                {
                  OFFSET 8.8614 0.775009 2.4612
                  CHANNELS 3 Zrotation Xrotation Yrotation
                  JOINT LeftHandIndex2
                  {
                    OFFSET 3.3146 -0.808304 0.5841
                    CHANNELS 3 Zrotation Xrotation Yrotation
                    JOINT LeftHandIndex3
                    {
                      OFFSET 2.2628 -0.552002 0.3989
                      CHANNELS 3 Zrotation Xrotation Yrotation
                      End Site
                      {
                        OFFSET 1.6102 -0.4807 0.2612
                      }
                    }
                  }
                }
                JOINT LeftHandMiddle1
                {
                  OFFSET 8.9937 0.895004 0.2143
                  CHANNELS 3 Zrotation Xrotation Yrotation
                  JOINT LeftHandMiddle2
                  {
                    OFFSET 4.0984 0.0113983 -0.0242
                    CHANNELS 3 Zrotation Xrotation Yrotation
                    JOINT LeftHandMiddle3
                    {
                      OFFSET 2.2716 0.00689697 -0.0138001
                      CHANNELS 3 Zrotation Xrotation Yrotation
                      End Site
                      {
                        OFFSET 2.0404 -0.1441 0.0027
                      }
                    }
                  }
                }
                JOINT LeftHandRing1
                {
                  OFFSET 8.5234 0.597198 -2.0164
                  CHANNELS 3 Zrotation Xrotation Yrotation
                  JOINT LeftHandRing2
                  {
                    OFFSET 3.7188 -0.188293 -0.2328
                    CHANNELS 3 Zrotation Xrotation Yrotation
                    JOINT LeftHandRing3
                    {
                      OFFSET 2.1191 -0.106598 -0.1332
                      CHANNELS 3 Zrotation Xrotation Yrotation
                      End Site
                      {
                        OFFSET 1.8737 -0.2304 -0.0886
                      }
                    }
                  }
                }
                JOINT LeftHandPinky1
                {
                  OFFSET 7.9094 -0.601089 -3.4825
                  CHANNELS 3 Zrotation Xrotation Yrotation
                  JOINT LeftHandPinky2
                  {
                    OFFSET 2.2874 -0.477005 -0.6314
                    CHANNELS 3 Zrotation Xrotation Yrotation
                    JOINT LeftHandPinky3
                    {
                      OFFSET 1.6774 -0.349396 -0.4633
                      CHANNELS 3 Zrotation Xrotation Yrotation
                      End Site
                      {
                        OFFSET 1.4888 -0.4091 -0.3416
                      }
                    }
                  }
                }
                JOINT LeftHandThumb1
                {
                  OFFSET 1.833 -1.3875 1.3896
                  CHANNELS 3 Zrotation Xrotation Yrotation
                  JOINT LeftHandThumb2
                  {
                    OFFSET 3.4129 -1.121 2.5732
                    CHANNELS 3 Zrotation Xrotation Yrotation
                    JOINT LeftHandThumb3
                    {
                      OFFSET 2.2474 -0.804199 1.6192
                      CHANNELS 3 Zrotation Xrotation Yrotation
                      End Site
                      {
                        OFFSET 1.6527 -0.5689 1.1317
                      }
                    }
                  }
                }
              }
            }
          }
        }
        JOINT RightShoulder
        {
          OFFSET -2.2086 21.1115 7.2329
          CHANNELS 3 Zrotation Xrotation Yrotation
          JOINT RightArm
          {
            OFFSET -13.1216 3.0287 -4.9007
            CHANNELS 3 Zrotation Xrotation Yrotation
            JOINT RightForeArm
            {
              OFFSET -27.4081 -0.0973053 -0.2375
              CHANNELS 3 Zrotation Xrotation Yrotation
              JOINT RightHand
              {
                OFFSET -22.8641 0.0664063 -0.1369
                CHANNELS 3 Zrotation Xrotation Yrotation
                JOINT RightHandIndex1
                {
                  OFFSET -8.8614 0.774994 2.4612
                  CHANNELS 3 Zrotation Xrotation Yrotation
                  JOINT RightHandIndex2
                  {
                    OFFSET -3.3146 -0.808304 0.5841
                    CHANNELS 3 Zrotation Xrotation Yrotation
                    JOINT RightHandIndex3
                    {
                      OFFSET -2.2628 -0.552002 0.3989
                      CHANNELS 3 Zrotation Xrotation Yrotation
                      End Site
                      {
                        OFFSET -1.6102 -0.4807 0.2612
                      }
                    }
                  }
                }
                JOINT RightHandMiddle1
                {
                  OFFSET -8.9937 0.894989 0.2143
                  CHANNELS 3 Zrotation Xrotation Yrotation
                  JOINT RightHandMiddle2
                  {
                    OFFSET -4.0984 0.0113983 -0.0242
                    CHANNELS 3 Zrotation Xrotation Yrotation
                    JOINT RightHandMiddle3
                    {
                      OFFSET -2.2716 0.00691223 -0.0138001
                      CHANNELS 3 Zrotation Xrotation Yrotation
                      End Site
                      {
                        OFFSET -2.0404 -0.1441 0.0027
                      }
                    }
                  }
                }
                JOINT RightHandRing1
                {
                  OFFSET -8.5234 0.597198 -2.0164
                  CHANNELS 3 Zrotation Xrotation Yrotation
                  JOINT RightHandRing2
                  {
                    OFFSET -3.7188 -0.188309 -0.2328
                    CHANNELS 3 Zrotation Xrotation Yrotation
                    JOINT RightHandRing3
                    {
                      OFFSET -2.1191 -0.106598 -0.1332
                      CHANNELS 3 Zrotation Xrotation Yrotation
                      End Site
                      {
                        OFFSET -1.8737 -0.2304 -0.0886
                      }
                    }
                  }
                }
                JOINT RightHandPinky1
                {
                  OFFSET -7.9094 -0.601105 -3.4825
                  CHANNELS 3 Zrotation Xrotation Yrotation
                  JOINT RightHandPinky2
                  {
                    OFFSET -2.2874 -0.477005 -0.6314
                    CHANNELS 3 Zrotation Xrotation Yrotation
                    JOINT RightHandPinky3
                    {
                      OFFSET -1.6774 -0.349396 -0.4633
                      CHANNELS 3 Zrotation Xrotation Yrotation
                      End Site
                      {
                        OFFSET -1.4888 -0.4091 -0.3416
                      }
                    }
                  }
                }
                JOINT RightHandThumb1
                {
                  OFFSET -1.833 -1.38751 1.3896
                  CHANNELS 3 Zrotation Xrotation Yrotation
                  JOINT RightHandThumb2
                  {
                    OFFSET -3.41299 -1.12099 2.5732
                    CHANNELS 3 Zrotation Xrotation Yrotation
                    JOINT RightHandThumb3
                    {
                      OFFSET -2.24741 -0.804108 1.6192
                      CHANNELS 3 Zrotation Xrotation Yrotation
                      End Site
                      {
                        OFFSET -1.6527 -0.5689 1.1317
                      }
                    }
                  }
                }
              }
            }
          }
        }
      }
    }
  }
  JOINT RightUpLeg
  {
    OFFSET -9.1966 3.8861 -0.7581
    CHANNELS 3 Zrotation Xrotation Yrotation
    JOINT RightLeg
    {
      OFFSET -0.7359 -41.0265 0
      CHANNELS 3 Zrotation Xrotation Yrotation
      JOINT RightFoot
      {
        OFFSET 0 -40.2855 0
        CHANNELS 3 Zrotation Xrotation Yrotation
        JOINT RightToeBase
        {
          OFFSET 0 -5.6122 11.7359
          CHANNELS 3 Zrotation Xrotation Yrotation
          End Site
          {
            OFFSET 0 0 7.8731
          }
        }
      }
    }
  }
  JOINT LeftUpLeg
  {
    OFFSET 9.1965 3.8864 -0.7581
    CHANNELS 3 Zrotation Xrotation Yrotation
    JOINT LeftLeg
    {
      OFFSET 0.7359 -41.0268 0
      CHANNELS 3 Zrotation Xrotation Yrotation
      JOINT LeftFoot
      {
        OFFSET 0 -40.2855 0
        CHANNELS 3 Zrotation Xrotation Yrotation
        JOINT LeftToeBase
        {
          OFFSET 0 -5.6122 11.7359
          CHANNELS 3 Zrotation Xrotation Yrotation
          End Site
          {
            OFFSET 0 0 7.8731
          }
        }
      }
    }
  }
}
MOTION
Frames:	7
Frame Time:	0.0333333
5.84602e-005 68.8428 3.50346 0 0 -0 0 0 -0 0 0 -0 0 0 -0 0 0 -0 0 0 -0 0 0 -0 0 0 -0 0 0 -0 0 0 -0 0 0 -0 0 0 -0 0 0 -0 0 0 -0 -0.0146107 -8.87603e-005 -2.63497e-007 2.99804e-018 -2.42657e-020 -1.42182e-022 0 0 -0 -0.0187562 -0.001176 5.858e-005 5.06224e-018 3.88251e-019 1.21329e-020 0 0 -0 -0.012269 -0.00324817 0.000675346 -1.74678e-018 3.88251e-019 -0 0 0 -0 0 0 -0 0 0 -0 0 0 -0 0 0 -0 0 0 -0 0 0 -0 0 0 -0 0 0 -0 0 0 -0 0 0 -0 0.0149955 -9.10982e-005 2.64101e-007 -9.69331e-018 1.21329e-020 -4.7394e-023 0 0 -0 0.0189956 -0.00119102 -5.96516e-005 -5.41541e-019 0 2.42657e-020 0 0 -0 0.0122698 -0.00324857 -0.000673756 -2.00796e-019 0 -1.94126e-019 0 0 -0 0 0 -0 0 0 -0 3.39842 1.33031 -0.0637918 -5.65207e-008 0.834868 -0.000436188 -3.39935 -2.16518 -0.0642563 -8.89002e-024 -1.18485e-023 -1.48106e-024 -3.39844 1.35642 0.0640283 -3.18788e-007 0.782166 -0.000588827 3.39931 -2.13858 0.0634662 1.1399e-023 0 -0 
8.57925e-005 3.8021 62.6364 -180 -85.9956 -180 -0.0395856 0.646264 -0.10083 -0.0780411 1.29262 -0.201233 -0.0780412 1.2926 -0.201233 -1.16646e-006 25.9981 5.93116e-005 -6.95481e-008 4.99721 1.40072e-008 -0.207365 -9.09205 -1.13028 -0.630349 -11.9377 -76.2869 -19.8358 -24.2706 -34.1159 -6.9891 -47.9172 10.3919 -1.10609e-007 4.89692e-007 6.87194e-007 -1.10609e-007 4.89692e-007 6.87194e-007 -2.21218e-007 9.79384e-007 1.37439e-006 -1.10609e-007 4.89692e-007 6.87194e-007 -0.0146206 -8.75885e-005 -2.72317e-006 -2.21199e-007 9.79209e-007 1.37451e-006 -1.10609e-007 4.89692e-007 6.87194e-007 -0.0187612 -0.00117739 6.04553e-005 -2.21181e-007 9.79161e-007 1.37455e-006 -1.10609e-007 4.89692e-007 6.87194e-007 -0.0122889 -0.00325377 0.000678377 -2.21158e-007 9.79242e-007 1.3745e-006 -1.10609e-007 4.89692e-007 6.87194e-007 -1.10609e-007 4.89692e-007 6.87194e-007 -2.21218e-007 9.79384e-007 1.37439e-006 0.203617 -9.0921 1.12659 0.627131 -11.9398 76.2822 19.8315 -24.2722 34.1114 6.9822 -47.9171 -10.3988 -1.11551e-007 -4.95583e-007 6.82481e-007 -2.23102e-007 -9.91167e-007 1.36496e-006 -1.11551e-007 -4.95583e-007 6.82481e-007 -1.11551e-007 -4.95583e-007 6.82481e-007 0.0149996 -9.31379e-005 5.70321e-007 -1.11541e-007 -4.95494e-007 6.82546e-007 -1.11551e-007 -4.95583e-007 6.82481e-007 0.0190011 -0.00119243 -5.83249e-005 -1.11532e-007 -4.95471e-007 6.82565e-007 -1.11551e-007 -4.95583e-007 6.82481e-007 0.0122406 -0.0032432 -0.00067333 -1.11521e-007 -4.95513e-007 6.82537e-007 -1.11551e-007 -4.95583e-007 6.82481e-007 -2.23102e-007 -9.91167e-007 1.36496e-006 -1.11551e-007 -4.95583e-007 6.82481e-007 -90.808 -54.7831 -120.713 11.3876 -0.054851 8.7738 -16.1458 7.46407 17.6029 -2.72639e-008 4.0321e-007 1.37451e-007 90.8151 -54.7859 120.719 -11.3915 -0.0433662 -8.77635 16.144 7.4588 -17.6056 3.40389e-008 5.04031e-007 -1.71766e-007 
9.97668e-005 3.75491 62.6394 -180 -85.9956 -180 -0.0400459 0.801636 -0.100554 -0.0786961 1.60335 -0.200578 -0.0786961 1.60334 -0.200578 2.28021e-006 23.9198 -6.04705e-006 2.48065e-008 2.8129 6.31068e-008 -0.424447 -9.79307 -0.0849677 -0.633288 -12.0085 -76.6023 -20.7219 -23.6983 -35.9245 -5.53638 -48.0674 11.4892 -1.10264e-007 4.89657e-007 6.87358e-007 -3.55391e-007 -3.95402e-007 2.35403e-006 -1.10264e-007 4.89657e-007 6.87358e-007 -1.10264e-007 4.89657e-007 6.87358e-007 -0.0146217 -8.97547e-005 2.1592e-006 -1.10255e-007 4.89569e-007 6.8742e-007 -1.10264e-007 4.89657e-007 6.87358e-007 -0.018739 -0.00117738 6.26883e-005 -1.10245e-007 4.89545e-007 6.87439e-007 -1.10264e-007 4.89657e-007 6.87358e-007 -0.0122767 -0.00324974 0.000677558 -1.10234e-007 4.89585e-007 6.87413e-007 -1.10264e-007 4.89657e-007 6.87358e-007 -3.55391e-007 -3.95402e-007 2.35403e-006 -1.10264e-007 4.89657e-007 6.87358e-007 0.422544 -9.78927 0.0627243 0.62743 -12.0096 76.5954 20.7178 -23.7036 35.9234 5.53972 -48.0733 -11.4775 2.32682e-006 -9.78992e-007 1.23045e-006 6.7651e-006 -8.32968e-007 2.27188e-006 2.32682e-006 -9.78992e-007 1.23045e-006 2.32682e-006 -9.78992e-007 1.23045e-006 0.0150155 -9.33941e-005 2.41353e-006 2.32485e-006 -9.78819e-007 1.23057e-006 2.32682e-006 -9.78992e-007 1.23045e-006 0.0190007 -0.00119272 -5.73935e-005 2.32433e-006 -9.7863e-007 1.23059e-006 2.32682e-006 -9.78992e-007 1.23045e-006 0.0123085 -0.00325641 -0.000673707 -1.112e-007 -4.95495e-007 6.82692e-007 2.32682e-006 -9.78992e-007 1.23045e-006 6.7651e-006 -8.32968e-007 2.27188e-006 2.32682e-006 -9.78992e-007 1.23045e-006 -90.6958 -54.565 -120.631 10.8229 1.5129e-006 8.76957 -16.1058 7.99469 17.6757 -5.70186e-008 3.25802e-007 1.01365e-006 90.6941 -54.5713 120.629 -10.8269 -1.11417e-005 -8.77359 16.1032 7.99432 -17.679 -3.24881e-006 -1.76988e-007 8.03047e-008 
0.000116774 3.71898 62.6405 -180 -85.9956 -180 -0.0405111 0.957108 -0.100288 -0.0793628 1.91431 -0.19994 -0.0793628 1.91429 -0.19994 1.25215e-006 21.8298 -2.80765e-006 5.78376e-008 0.615478 -1.22115e-007 -0.62934 -10.4998 0.962195 -0.636598 -12.0794 -76.9178 -21.5871 -23.0985 -37.7222 -4.07391 -48.1989 12.5962 -2.33831e-008 -1.86463e-006 2.91735e-007 -8.65926e-008 2.35425e-006 3.95768e-007 -2.33831e-008 -1.86463e-006 2.91735e-007 -2.33831e-008 -1.86463e-006 2.91735e-007 -0.014591 -8.58179e-005 1.07381e-006 -2.34194e-008 -1.86466e-006 2.91498e-007 -2.33831e-008 -1.86463e-006 2.91735e-007 -0.0187758 -0.00117559 5.90038e-005 -2.3428e-008 -1.86468e-006 2.9143e-007 -2.33831e-008 -1.86463e-006 2.91735e-007 -0.012279 -0.00324618 0.000679442 -2.34166e-008 -1.86467e-006 2.91538e-007 -2.33831e-008 -1.86463e-006 2.91735e-007 -8.65926e-008 2.35425e-006 3.95768e-007 -2.33831e-008 -1.86463e-006 2.91735e-007 0.629207 -10.4923 -1.00296 0.628132 -12.0794 76.9087 21.5836 -23.1073 37.7246 4.08724 -48.2115 -12.5662 -1.10964e-007 -4.95545e-007 6.82773e-007 -1.10964e-007 -4.95545e-007 6.82773e-007 -1.10964e-007 -4.95545e-007 6.82773e-007 -1.10964e-007 -4.95545e-007 6.82773e-007 0.0149834 -9.43393e-005 9.65263e-007 -1.10954e-007 -4.95456e-007 6.82837e-007 -1.10964e-007 -4.95545e-007 6.82773e-007 0.0189883 -0.00119136 -5.81279e-005 -1.10945e-007 -4.95433e-007 6.82856e-007 -1.10964e-007 -4.95545e-007 6.82773e-007 0.0122887 -0.0032535 -0.000678766 -1.10934e-007 -4.95475e-007 6.82828e-007 -1.10964e-007 -4.95545e-007 6.82773e-007 -1.10964e-007 -4.95545e-007 6.82773e-007 -1.10964e-007 -4.95545e-007 6.82773e-007 -90.589 -54.3444 -120.561 10.2523 0.0615597 8.77028 -16.0604 8.52478 17.7476 -3.54279e-008 -8.02003e-008 8.74049e-007 90.5932 -54.3491 120.563 -10.2563 0.0701991 -8.77317 16.0585 8.51921 -17.7502 1.46021e-008 2.00949e-007 -7.02656e-008 
0.000118865 3.71854 62.637 -180 -85.9956 -180 -0.0409757 1.11261 -0.100015 -0.0800311 2.2253 -0.199292 -0.0800312 2.22527 -0.199292 6.09517e-006 19.7298 -8.92e-006 8.33263e-008 -1.59357 1.83288e-007 -0.821863 -11.2113 2.01119 -0.640326 -12.1503 -77.2334 -22.4306 -22.4721 -39.5078 -2.60288 -48.3116 13.7117 2.20021e-006 9.08738e-007 1.15751e-006 -4.02639e-006 -3.8835e-007 1.59493e-007 -1.09741e-007 4.89581e-007 6.87632e-007 2.20021e-006 9.08738e-007 1.15751e-006 -0.0146183 -8.80374e-005 5.26854e-007 2.19828e-006 9.08579e-007 1.15762e-006 2.20021e-006 9.08738e-007 1.15751e-006 -0.018758 -0.00117317 5.84505e-005 -1.09723e-007 4.8947e-007 6.87713e-007 2.20021e-006 9.08738e-007 1.15751e-006 -0.0122751 -0.00324832 0.000675603 -1.09712e-007 4.8951e-007 6.87687e-007 2.20021e-006 9.08738e-007 1.15751e-006 -4.02639e-006 -3.8835e-007 1.59493e-007 -1.09741e-007 4.89581e-007 6.87632e-007 0.823342 -11.2002 -2.07059 0.629249 -12.1492 77.2221 22.4276 -22.4844 39.5138 2.62589 -48.3312 -13.6636 2.32697e-006 -9.59241e-007 1.21115e-006 -5.18662e-006 -3.28462e-006 -2.86808e-006 -2.54846e-006 -3.1805e-008 1.54634e-007 2.32697e-006 -9.59241e-007 1.21115e-006 0.0150056 -9.23562e-005 -8.44169e-007 -2.54647e-006 -3.17966e-008 1.54641e-007 2.32697e-006 -9.59241e-007 1.21115e-006 0.0189517 -0.0011921 -6.17622e-005 -1.1073e-007 -4.95411e-007 6.82975e-007 2.32697e-006 -9.59241e-007 1.21115e-006 0.0122738 -0.00325353 -0.000681975 2.32539e-006 -9.58669e-007 1.21128e-006 2.32697e-006 -9.59241e-007 1.21115e-006 -5.18662e-006 -3.28462e-006 -2.86808e-006 -2.54846e-006 -3.1805e-008 1.54634e-007 -90.3925 -54.1445 -120.422 9.67601 -1.82465e-005 8.79255 -15.9925 9.12247 17.8269 3.18244e-006 -4.18906e-008 9.10115e-007 90.4147 -54.1434 120.439 -9.68014 0.0337882 -8.79235 15.9923 9.10344 -17.8277 -6.33823e-006 -3.68421e-007 -2.62265e-006 
0.000124732 3.71812 62.6335 -180 -85.9956 -180 -0.0414422 1.26817 -0.099744 -0.0807049 2.53641 -0.198642 -0.0807049 2.5364 -0.198642 4.45625e-006 17.621 5.93946e-006 6.09119e-008 -3.81266 4.79531e-008 -1.0018 -11.9275 3.06208 -0.644456 -12.2211 -77.5491 -23.2511 -21.82 -41.2802 -1.12452 -48.4053 14.8344 -1.09558e-007 4.89543e-007 6.87743e-007 -9.87786e-006 -2.59732e-007 1.64226e-006 -1.09558e-007 4.89543e-007 6.87743e-007 -1.09558e-007 4.89543e-007 6.87743e-007 -0.0146036 -8.91387e-005 1.73884e-006 -1.09549e-007 4.89456e-007 6.87805e-007 -1.09558e-007 4.89543e-007 6.87743e-007 -0.0187582 -0.00117578 6.27353e-005 -1.0954e-007 4.89432e-007 6.87824e-007 -1.09558e-007 4.89543e-007 6.87743e-007 -0.0122711 -0.00324813 0.000677905 2.19827e-006 9.00463e-007 1.14992e-006 -1.09558e-007 4.89543e-007 6.87743e-007 -9.87786e-006 -2.59732e-007 1.64226e-006 -1.09558e-007 4.89543e-007 6.87743e-007 1.00475 -11.913 -3.14017 0.630728 -12.219 77.5356 23.2488 -21.8358 41.29 1.15688 -48.4322 -14.7687 3.58264e-007 -3.7499e-007 -2.35699e-006 -8.03858e-006 1.27382e-006 -4.13803e-007 7.90148e-006 9.2173e-008 1.4048e-006 3.58264e-007 -3.7499e-007 -2.35699e-006 0.0149768 -8.96179e-005 1.18788e-007 7.90001e-006 9.23655e-008 1.40478e-006 3.58264e-007 -3.7499e-007 -2.35699e-006 0.0189633 -0.00118946 -6.15281e-005 5.46462e-006 5.48507e-007 8.84508e-007 3.58264e-007 -3.7499e-007 -2.35699e-006 0.0122878 -0.00325589 -0.000676259 5.46441e-006 5.48413e-007 8.84421e-007 3.58264e-007 -3.7499e-007 -2.35699e-006 -8.03858e-006 1.27382e-006 -4.13803e-007 7.90148e-006 9.2173e-008 1.4048e-006 -90.3121 -53.9076 -120.39 9.09455 0.0956291 8.80161 -15.9331 9.6428 17.8953 -3.47698e-008 -9.74909e-007 1.45812e-006 90.28 -53.9257 120.36 -9.09878 0.0552427 -8.81037 15.9281 9.66001 -17.9009 9.57231e-008 5.13749e-007 -1.08806e-006 
0.000130209 3.7177 62.6299 -180 -85.9956 -180 -0.0419067 1.42368 -0.0994632 -0.0813779 2.84745 -0.197976 -0.0813778 2.84745 -0.197976 3.03589e-006 15.5051 -3.81725e-006 6.06337e-008 -6.04023 -8.21493e-008 -1.16896 -12.6475 4.11491 -0.648971 -12.2919 -77.865 -24.0477 -21.1432 -43.0386 0.359911 -48.4797 15.9631 2.18846e-007 -9.79013e-007 -1.37567e-006 2.52774e-006 -5.73628e-007 -9.20286e-007 2.18846e-007 -9.79013e-007 -1.37567e-006 2.18846e-007 -9.79013e-007 -1.37567e-006 -0.014596 -9.16784e-005 -4.32227e-008 2.18828e-007 -9.78838e-007 -1.3758e-006 2.18846e-007 -9.79013e-007 -1.37567e-006 -0.0187342 -0.00117276 5.7828e-005 2.1881e-007 -9.78789e-007 -1.37583e-006 2.18846e-007 -9.79013e-007 -1.37567e-006 -0.0122835 -0.0032522 0.00067915 2.18787e-007 -9.7887e-007 -1.37578e-006 2.18846e-007 -9.79013e-007 -1.37567e-006 2.52774e-006 -5.73628e-007 -9.20286e-007 2.18846e-007 -9.79013e-007 -1.37567e-006 1.17319 -12.6296 -4.21181 0.632619 -12.2887 77.8493 24.0462 -21.1623 43.0522 -0.318533 -48.5145 -15.8801 8.0124e-006 5.8973e-007 7.13833e-007 1.0955e-005 -7.72593e-007 1.45951e-006 7.79148e-006 -4.01221e-007 2.07999e-006 8.0124e-006 5.8973e-007 7.13833e-007 0.0149757 -9.00246e-005 3.37196e-007 7.79002e-006 -4.0094e-007 2.08004e-006 8.0124e-006 5.8973e-007 7.13833e-007 0.0190068 -0.00119165 -5.78381e-005 7.78965e-006 -4.00756e-007 2.07999e-006 8.0124e-006 5.8973e-007 7.13833e-007 0.0123178 -0.00325964 -0.00067848 7.79034e-006 -4.00634e-007 2.07988e-006 8.0124e-006 5.8973e-007 7.13833e-007 1.0955e-005 -7.72593e-007 1.45951e-006 7.79148e-006 -4.01221e-007 2.07999e-006 -90.115 -53.7142 -120.267 8.50824 0.0283568 8.83641 -15.8611 10.2458 17.9738 -3.19734e-006 -2.59965e-007 -1.56768e-007 90.0913 -53.7298 120.244 -8.51257 -1.03768e-005 -8.84357 15.857 10.2561 -17.9784 -1.41241e-006 -4.86822e-007 -1.02665e-006 
